<?xml version="1.0" standalone="no"?>
<!DOCTYPE svg PUBLIC "-//W3C//DTD SVG 20010904//EN"
 "http://www.w3.org/TR/2001/REC-SVG-20010904/DTD/svg10.dtd">
<svg version="1.0" xmlns="http://www.w3.org/2000/svg"
 width="20px" height="20px" viewBox="0 0 841.000000 742.000000"
 preserveAspectRatio="xMidYMid meet">

<g transform="translate(0.000000,742.000000) scale(0.100000,-0.100000)"
fill="#ffffff" stroke="none">
<path d="M4145 7411 c-75 -19 -112 -51 -147 -126 -34 -74 -32 -286 5 -475 25
-132 26 -153 43 -890 9 -415 18 -757 20 -759 2 -2 64 12 138 30 l136 33 0 56
c0 30 7 359 15 730 l16 675 30 155 c59 296 50 445 -31 522 -53 49 -142 69
-225 49z"/>
<path d="M3729 6790 c-1137 -192 -2057 -1037 -2340 -2153 -147 -581 -108
-1218 108 -1767 383 -972 1235 -1655 2268 -1821 189 -30 559 -37 755 -14 656
75 1235 349 1703 804 942 916 1155 2318 528 3476 -365 675 -998 1184 -1740
1399 -130 38 -338 81 -443 92 -65 6 -67 6 -72 -17 -13 -60 -12 -64 19 -67 17
-1 75 -10 130 -18 539 -85 1066 -341 1465 -712 l65 -61 -155 -155 c-85 -86
-158 -156 -163 -156 -4 0 -5 11 -1 25 6 25 8 24 -73 41 -15 3 -20 9 -16 19 3
9 -3 47 -13 85 -24 93 -71 139 -225 219 -115 61 -116 61 -148 45 -18 -9 -31
-19 -29 -22 2 -4 22 -45 45 -92 51 -106 73 -193 73 -296 l0 -79 60 -75 c33
-41 60 -78 60 -81 0 -4 -11 -10 -25 -13 l-26 -7 20 -28 20 -28 -54 -53 c-29
-29 -57 -50 -63 -46 -5 3 -15 19 -22 36 l-13 31 -42 -78 c-31 -57 -39 -82 -32
-91 8 -10 -30 -54 -158 -182 l-169 -170 -31 30 -30 29 -48 -21 c-36 -16 -45
-24 -37 -34 9 -9 4 -18 -19 -35 -17 -13 -31 -29 -31 -36 0 -16 -12 -17 -26 -3
-15 15 -74 -7 -67 -26 8 -21 71 -8 103 21 32 29 85 41 106 24 13 -11 6 -22
-51 -79 -45 -46 -73 -66 -85 -63 -27 7 -131 -15 -150 -32 -36 -32 -42 -13 -7
23 39 40 45 52 24 52 -7 0 -30 -22 -50 -50 -21 -27 -33 -50 -27 -50 5 0 10 -9
10 -20 0 -11 7 -20 15 -20 8 0 15 -4 15 -9 0 -5 3 -16 6 -25 11 -28 -96 -21
-157 10 -28 14 -54 22 -57 19 -4 -4 -8 -114 -10 -246 -3 -194 -1 -239 10 -239
7 0 61 -20 121 -44 229 -94 364 -210 428 -367 33 -83 38 -245 10 -337 -52
-173 -189 -282 -471 -377 l-125 -42 -3 -129 -2 -129 67 -36 c256 -138 365
-315 366 -594 1 -119 -12 -161 -56 -189 -25 -17 -205 -53 -317 -64 l-75 -7 -3
-42 -3 -43 43 0 c61 0 265 35 378 64 355 92 705 280 964 517 l57 52 170 -169
170 -169 -72 -68 c-40 -38 -124 -108 -188 -156 -414 -311 -895 -499 -1414
-551 -155 -16 -546 -8 -682 14 -569 92 -1051 321 -1477 700 l-57 51 167 167
c92 93 170 168 173 168 4 0 42 -30 86 -68 233 -200 498 -350 793 -447 152 -49
343 -91 468 -101 l82 -7 0 45 0 45 -76 6 c-192 17 -459 90 -669 184 -190 84
-406 224 -566 365 l-53 48 44 46 45 46 66 -6 67 -6 26 35 c26 34 27 34 119 37
l92 3 9 30 c6 17 11 31 12 33 1 2 44 -25 95 -58 215 -142 467 -235 737 -274
l42 -6 0 44 c0 44 -1 45 -37 51 -335 55 -588 165 -831 361 l-84 67 168 168
c93 93 172 169 175 169 4 0 29 -18 56 -40 60 -47 192 -130 209 -130 6 0 15 11
18 24 3 13 8 31 11 38 4 10 -22 33 -82 71 -48 32 -101 68 -118 82 l-30 25 171
171 172 172 33 -26 c38 -28 113 -67 129 -67 5 0 10 20 10 44 0 42 -2 45 -55
77 l-55 33 46 47 c25 26 42 49 37 52 -4 2 -25 10 -46 17 -37 12 -40 11 -72
-20 l-33 -32 -25 34 c-13 18 -32 46 -42 61 -10 16 -46 42 -79 59 -134 68 -267
185 -328 289 -119 203 -115 518 9 723 l36 58 -167 167 -168 168 64 57 c190
174 492 324 750 374 l88 17 0 46 0 47 -71 -14 c-294 -56 -579 -191 -803 -381
-99 -84 -92 -81 -121 -53 -28 26 -26 27 -49 -18 -16 -31 -16 -35 -1 -52 16
-17 13 -22 -45 -92 -224 -265 -378 -627 -405 -948 -3 -41 -8 -94 -11 -117 l-5
-43 -241 0 -241 0 7 103 c30 444 180 856 439 1203 40 55 98 125 127 157 l53
58 76 -75 c79 -78 95 -85 147 -66 l28 11 -95 95 -94 95 64 61 c35 33 109 94
165 135 77 57 105 84 116 112 8 21 28 54 43 74 15 21 24 37 20 37 -12 0 -185
-112 -257 -167 -34 -26 -96 -78 -139 -116 l-79 -70 -169 169 -170 169 78 74
c286 269 709 506 1108 620 130 37 322 77 418 87 72 7 76 13 61 72 -8 27 -26
27 -175 2z m-1379 -1085 c126 -126 162 -168 155 -179 -6 -7 -46 -56 -89 -107
-176 -207 -334 -491 -420 -749 -69 -208 -105 -391 -121 -622 l-7 -98 -239 0
-239 0 0 63 c0 34 7 124 15 199 54 510 241 988 544 1392 87 115 216 266 229
266 4 0 81 -74 172 -165z m3977 63 c174 -205 283 -370 398 -603 179 -363 265
-690 290 -1102 l7 -113 -240 0 -241 0 -5 43 c-3 23 -8 83 -11 132 -14 227 -79
483 -186 734 -27 62 -49 115 -49 118 0 2 9 1 20 -2 28 -9 25 7 -14 78 -64 114
-146 222 -206 272 -33 28 -89 84 -125 125 l-64 75 167 168 c92 92 170 167 174
167 3 0 42 -42 85 -92z m-567 -539 c7 -11 9 -31 6 -43 -4 -18 6 -29 72 -69 43
-26 87 -47 97 -48 13 0 52 -38 105 -100 118 -139 109 -132 158 -115 l41 15 35
-86 c96 -229 148 -458 171 -755 l6 -78 -244 0 -244 0 -6 103 c-3 56 -13 137
-21 181 -11 53 -12 84 -6 96 6 10 17 51 25 91 30 143 -21 355 -124 508 -65 96
-70 107 -46 97 31 -11 13 14 -29 44 -75 51 -75 37 -2 -68 96 -137 144 -257
170 -418 20 -129 20 -134 -4 -134 -27 0 -87 116 -72 141 8 12 5 23 -9 45 -10
16 -19 42 -19 58 0 34 -25 66 -51 66 -10 0 -25 13 -34 30 -10 19 -12 30 -4 30
6 0 9 6 6 13 -2 6 3 20 12 31 15 18 15 18 -16 12 l-32 -7 9 32 c15 51 -8 69
-29 23 l-12 -26 -31 43 c-17 24 -56 75 -86 112 l-55 68 64 65 63 64 63 0 c53
0 64 -3 73 -21z m-2600 -334 c128 -128 163 -168 155 -179 -6 -8 -29 -39 -52
-68 -23 -29 -59 -82 -81 -118 -36 -60 -43 -65 -83 -73 -24 -5 -53 -18 -64 -29
l-20 -20 20 5 c11 3 38 9 60 12 l40 6 -28 -25 c-15 -14 -36 -26 -45 -26 -10 0
-34 -14 -55 -31 -30 -25 -45 -30 -73 -27 -35 4 -35 4 -84 -88 -39 -71 -49 -98
-44 -120 4 -23 0 -34 -20 -53 -14 -14 -26 -34 -26 -45 0 -12 -3 -31 -6 -43 -6
-22 -11 -23 -115 -23 l-110 0 6 68 c25 285 95 517 221 736 66 115 211 306 233
306 3 0 80 -74 171 -165z m2342 78 c34 -43 79 -105 100 -138 38 -58 38 -60 19
-69 -16 -7 -21 -18 -21 -45 0 -34 5 -39 64 -74 69 -41 72 -46 121 -189 l24
-67 -40 -41 c-22 -22 -39 -50 -39 -63 0 -34 -58 -75 -98 -69 -32 4 -41 15 -23
27 6 3 13 26 17 52 4 25 15 54 24 63 17 17 16 20 -25 60 -42 41 -44 42 -78 29
-28 -10 -37 -19 -41 -44 -4 -18 -17 -42 -31 -55 l-25 -23 -24 22 c-31 29 -39
58 -18 66 9 3 18 1 20 -4 6 -19 22 -12 22 10 0 21 -6 22 -46 8 -5 -2 -41 31
-79 75 -65 74 -68 79 -50 92 18 13 17 14 -9 14 -21 0 -27 -4 -22 -15 4 -11 -2
-15 -22 -15 -22 0 -37 14 -78 68 l-52 67 166 168 c92 92 170 167 174 167 4 0
36 -35 70 -77z m-432 -376 c40 -54 48 -80 30 -107 -8 -12 -11 -12 -28 3 -32
29 -67 14 -37 -17 13 -12 14 -20 4 -37 -6 -12 -14 -17 -18 -12 -3 6 -16 13
-28 17 -27 9 -30 26 -5 26 14 0 13 4 -7 19 -21 16 -23 23 -17 62 4 27 17 55
33 71 15 16 28 28 30 28 1 0 20 -24 43 -53z m755 -270 c4 -21 -3 -57 -20 -106
-33 -98 -32 -114 7 -62 41 56 47 45 55 -98 l6 -111 -210 0 c-189 0 -212 2
-217 17 -5 11 2 26 21 45 15 15 34 34 41 43 7 8 26 15 42 15 35 0 41 24 10 40
-11 6 -20 14 -20 19 0 15 78 51 124 57 25 4 46 11 46 16 0 5 18 26 40 48 28
28 41 50 46 79 7 46 20 45 29 -2z m-2803 -200 c5 -6 6 -28 3 -47 -2 -19 -5
-56 -5 -82 l0 -48 -62 0 c-62 0 -64 1 -87 38 -18 28 -24 48 -22 82 3 65 28 83
105 75 33 -3 64 -11 68 -18z m-1147 -344 c12 -145 37 -308 66 -422 16 -63 27
-117 24 -119 -4 -5 -13 -1 -55 23 -14 8 -47 15 -74 15 -49 0 -49 0 -31 -20 26
-29 14 -33 -50 -20 -53 11 -56 13 -41 29 14 16 14 20 3 30 -22 17 -102 -20
-120 -56 -26 -50 -7 -159 51 -294 51 -119 96 -199 111 -199 5 0 -10 35 -32 77
-34 65 -41 88 -42 140 -1 54 2 63 17 63 23 0 49 -26 78 -79 29 -50 40 -52 40
-6 0 42 17 46 31 6 8 -22 18 -31 44 -35 19 -4 43 -2 54 3 24 13 31 5 31 -33 1
-36 20 -66 44 -66 10 0 32 -25 54 -62 67 -111 102 -133 118 -75 l10 32 53 -80
c50 -73 145 -196 238 -303 l37 -43 -170 -170 -169 -170 -53 58 c-335 369 -563
795 -678 1268 -30 123 -61 334 -70 478 l-7 107 241 0 240 0 7 -77z m577 6 c3
-70 3 -71 -24 -76 -21 -4 -30 -14 -37 -38 -5 -19 -35 -66 -67 -107 l-59 -73 0
-109 0 -109 -69 -23 c-39 -13 -82 -24 -98 -24 -25 0 -29 5 -48 68 -40 130 -90
431 -90 544 0 17 14 18 244 18 l244 0 4 -71z m228 64 c0 -5 -7 -30 -15 -57
-14 -45 -14 -50 5 -73 20 -26 20 -26 -2 -64 -19 -35 -26 -39 -59 -39 -49 0
-56 14 -64 116 -3 43 -8 89 -11 102 -4 21 -2 22 71 22 41 0 75 -3 75 -7z m240
-13 c10 -19 9 -36 -12 -116 -8 -32 -7 -48 4 -68 14 -26 15 -23 27 67 7 52 10
104 6 116 -6 19 -3 21 33 21 l39 0 6 -68 c20 -211 114 -436 258 -618 l61 -77
-168 -169 -169 -169 -51 57 -50 56 8 60 c7 52 5 66 -18 120 -18 42 -27 86 -30
147 -5 69 -12 97 -35 143 -23 45 -29 65 -24 91 9 45 -51 167 -89 185 -29 13
-30 19 -16 57 7 19 6 33 -4 53 -12 23 -12 32 -1 60 12 27 19 32 49 32 26 0 36
5 41 20 5 17 15 20 65 20 49 0 61 -4 70 -20z m2950 -29 c0 -67 -34 -258 -64
-362 -66 -223 -196 -456 -356 -639 l-40 -45 -27 27 c-24 25 -26 30 -16 62 8
26 7 50 -5 100 -9 36 -19 66 -23 66 -4 0 -21 -22 -39 -50 -18 -27 -35 -50 -39
-50 -5 0 -16 9 -27 21 -15 16 -16 23 -6 37 32 45 62 115 57 131 -3 10 1 34 10
54 12 28 13 47 5 88 -6 29 -16 57 -23 61 -19 12 -37 9 -37 -7 0 -8 -7 -15 -15
-15 -8 0 -15 4 -15 8 0 22 104 178 126 190 13 7 24 17 24 22 0 6 6 10 13 10
22 0 37 22 27 40 -8 15 -1 16 68 16 89 0 210 33 203 55 -2 8 -6 27 -9 43 -4
26 -2 28 14 21 46 -19 74 -6 55 24 -8 12 -14 12 -40 1 -20 -8 -47 -10 -76 -6
-43 7 -47 10 -75 66 -17 33 -30 64 -30 70 0 6 63 10 180 10 l180 0 0 -49z
m573 -13 c-27 -503 -234 -997 -575 -1377 -25 -28 -50 -51 -55 -51 -5 0 -22 13
-38 30 -28 29 -28 30 -10 50 18 20 18 24 1 115 -10 52 -23 95 -28 95 -6 0 -8
9 -5 19 3 14 -2 21 -18 25 -13 3 -30 9 -38 12 -12 4 -18 -10 -28 -71 -6 -41
-16 -78 -21 -82 -10 -6 -148 125 -148 140 0 5 25 37 56 70 159 176 309 462
373 715 24 93 51 265 51 330 l0 42 243 0 243 0 -3 -62z m572 -25 c-41 -556
-196 -1010 -493 -1443 -73 -106 -210 -275 -269 -332 l-39 -38 -168 169 -169
169 62 69 c333 362 560 891 587 1368 3 55 7 106 10 113 2 9 60 12 245 12 l241
0 -7 -87z m-3797 -43 c20 0 48 -11 73 -29 22 -17 47 -27 54 -25 8 3 27 -5 44
-17 24 -18 28 -25 19 -36 -12 -15 -9 -19 35 -44 14 -8 17 -6 17 18 0 30 24 73
41 73 10 0 69 -78 69 -92 0 -4 -8 -8 -17 -8 -35 0 -46 -15 -33 -41 17 -33 16
-32 39 -19 12 6 21 17 21 25 0 8 7 18 16 23 9 5 22 33 28 62 l12 53 29 -49
c15 -27 41 -65 56 -85 l28 -35 -170 -170 -170 -169 -36 40 c-58 65 -143 202
-179 287 -32 76 -64 186 -79 273 l-7 40 39 -37 c29 -28 47 -38 71 -38z m1920
-823 c33 -31 13 -41 -47 -23 -28 8 -57 13 -65 10 -7 -3 -38 11 -69 30 l-57 34
37 30 37 29 70 -45 c39 -25 81 -54 94 -65z m560 -656 c-108 -98 -351 -271
-363 -259 -2 2 5 23 15 46 13 28 17 50 11 64 -6 17 -1 27 26 51 39 35 42 59 8
77 -14 7 -25 20 -25 27 0 21 34 83 73 132 l35 44 -31 39 c-23 26 -40 38 -59
38 -18 0 -33 9 -44 26 -17 25 -16 26 22 65 l38 39 172 -171 173 -172 -51 -46z
m-3078 223 l62 -36 -38 -39 c-21 -21 -41 -39 -45 -39 -4 0 -29 25 -55 56 l-48
56 23 19 c13 11 27 19 32 19 4 0 36 -16 69 -36z"/>
<path d="M5442 4890 c-18 -11 -40 -36 -49 -55 -16 -33 -16 -37 0 -64 20 -35
14 -57 -19 -65 -13 -4 -24 -13 -24 -21 0 -31 75 -8 91 29 10 21 7 29 -15 59
-29 38 -31 45 -12 69 12 16 15 15 49 -7 44 -30 51 -31 37 -4 -9 15 -8 24 1 35
9 11 9 17 -1 29 -16 19 -18 19 -58 -5z"/>
<path d="M1847 2624 c41 -61 56 -59 24 4 -17 33 -37 52 -57 52 -2 0 13 -25 33
-56z"/>
<path d="M2902 3551 c34 -81 54 -83 43 -4 -6 44 -8 48 -35 49 l-28 1 20 -46z"/>
<path d="M1909 6670 c-197 -65 -357 -168 -525 -335 -130 -129 -213 -243 -291
-399 -43 -86 -123 -308 -123 -342 0 -10 27 9 69 48 37 34 141 114 230 177 259
181 314 240 451 486 98 175 141 237 225 323 39 39 66 72 60 71 -5 0 -49 -13
-96 -29z"/>
<path d="M6456 6628 c83 -86 122 -143 234 -338 146 -256 169 -279 521 -528 63
-45 140 -106 171 -135 l56 -53 -24 85 c-107 393 -390 751 -733 929 -90 47
-198 90 -266 106 -27 7 -24 1 41 -66z"/>
<path d="M4582 6508 c-7 -7 -33 -11 -59 -9 -35 1 -45 -1 -37 -9 17 -17 280
-22 294 -5 8 10 3 15 -21 24 -43 15 -162 14 -177 -1z"/>
<path d="M4467 6335 c-4 -26 -7 -98 -7 -159 l0 -111 86 -17 c181 -35 333 -137
397 -267 30 -61 32 -73 32 -166 0 -88 -3 -107 -27 -158 -53 -113 -170 -199
-361 -266 -48 -17 -197 -58 -330 -92 -299 -75 -423 -116 -552 -182 -81 -41
-115 -66 -180 -131 -87 -87 -123 -149 -152 -258 -20 -78 -22 -244 -4 -318 42
-173 158 -304 357 -403 82 -41 252 -102 260 -94 4 3 3 80 -1 171 l-7 166 -58
35 c-72 44 -143 119 -161 171 -7 21 -13 66 -13 99 1 153 110 256 355 334 53
16 199 55 324 86 345 86 507 147 651 246 101 70 166 145 219 254 102 207 101
451 -2 648 -49 93 -189 237 -289 296 -136 80 -328 145 -465 157 l-66 7 -6 -48z"/>
<path d="M3845 6306 c-33 -13 -94 -39 -135 -58 -41 -19 -106 -42 -145 -52
-169 -45 -281 -123 -401 -283 -65 -86 -86 -126 -103 -198 -7 -27 -26 -80 -42
-117 -16 -36 -29 -80 -29 -97 0 -69 -59 -154 -133 -190 -43 -21 -30 -29 18
-11 23 9 26 8 21 -6 -24 -63 -12 -61 32 6 70 108 94 130 136 130 76 0 184 53
406 198 85 56 145 106 230 192 82 83 133 125 178 149 l62 32 -2 162 c-3 135
-6 162 -18 164 -8 1 -42 -8 -75 -21z m-405 -394 c0 -18 -119 -123 -150 -132
-18 -5 -35 -8 -37 -6 -2 2 16 35 39 74 l43 71 53 1 c28 0 52 -4 52 -8z"/>
<path d="M945 6148 c-143 -131 -239 -278 -299 -459 -71 -212 -85 -426 -51
-816 l19 -222 44 82 c113 211 245 352 525 561 108 81 229 179 267 217 102 104
181 228 237 377 l24 65 -50 -50 c-28 -27 -98 -78 -157 -113 -200 -122 -369
-237 -449 -307 -90 -77 -194 -202 -255 -305 -42 -70 -56 -86 -41 -45 20 52 52
225 81 442 40 298 69 419 129 540 27 52 47 95 46 95 -1 0 -33 -28 -70 -62z"/>
<path d="M7409 6163 c71 -116 108 -255 151 -581 31 -230 50 -337 75 -427 10
-34 10 -44 2 -31 -110 170 -143 213 -226 297 -108 107 -227 194 -444 325 -82
49 -178 115 -213 148 l-65 58 21 -53 c98 -251 217 -394 495 -596 292 -211 416
-342 539 -574 l42 -79 20 208 c48 526 3 814 -170 1081 -46 71 -177 216 -229
253 l-28 20 30 -49z"/>
<path d="M5515 6100 c-10 -11 -13 -20 -8 -20 6 0 34 -16 63 -35 29 -19 54 -35
56 -35 2 0 4 10 4 23 0 26 -26 60 -57 76 -30 15 -37 14 -58 -9z"/>
<path d="M4452 5622 l3 -45 87 -18 c71 -14 214 -57 286 -86 10 -4 42 50 42 72
0 18 -206 83 -343 108 l-78 15 3 -46z"/>
<path d="M413 5442 c-141 -231 -203 -434 -203 -666 0 -218 42 -357 210 -698
55 -110 102 -216 106 -234 3 -19 9 -34 13 -34 4 0 17 31 29 68 52 163 141 311
322 538 182 227 300 429 380 647 58 159 58 159 -8 91 -31 -33 -109 -103 -172
-155 -274 -228 -412 -424 -508 -719 l-37 -115 -7 100 c-5 55 -28 222 -53 370
-24 149 -49 308 -55 355 -16 134 -12 322 9 425 10 50 18 91 17 92 -1 1 -20
-28 -43 -65z"/>
<path d="M7944 5497 c54 -170 48 -414 -19 -807 -26 -151 -52 -333 -58 -404
l-12 -129 -28 99 c-15 54 -54 153 -86 219 -99 205 -203 331 -431 525 -63 53
-141 125 -172 158 -32 33 -58 59 -58 57 0 -23 86 -240 135 -342 75 -157 155
-280 301 -463 198 -250 267 -371 341 -600 3 -8 13 12 24 45 10 33 59 142 109
243 108 219 133 279 165 397 36 134 48 264 35 385 -18 166 -52 275 -134 437
-45 88 -123 214 -112 180z"/>
<path d="M2827 5251 c-17 -6 -17 -9 -4 -19 12 -10 16 -9 21 4 8 21 6 23 -17
15z"/>
<path d="M4188 4608 l-108 -30 0 -147 c0 -181 21 -1215 25 -1219 4 -4 178 49
187 57 3 3 11 281 17 616 6 336 13 643 15 683 5 86 14 83 -136 40z"/>
<path d="M3916 4488 c-45 -37 -66 -81 -66 -140 0 -57 27 -105 81 -147 49 -38
67 -26 25 18 -33 34 -33 56 -1 85 24 22 24 26 18 119 -3 54 -9 97 -12 97 -4 0
-24 -14 -45 -32z"/>
<path d="M77 4417 c-70 -383 -29 -664 130 -911 54 -85 101 -141 248 -301 124
-135 182 -207 223 -284 l29 -52 6 118 c10 190 42 298 185 613 123 273 158 408
168 645 l6 140 -36 -58 c-19 -31 -83 -121 -141 -200 -184 -248 -245 -405 -266
-686 -6 -80 -8 -161 -5 -180 9 -58 -11 -20 -34 64 -46 167 -136 363 -280 615
-147 257 -195 371 -208 503 l-7 72 -18 -98z"/>
<path d="M8300 4455 c0 -105 -66 -265 -221 -537 -145 -256 -216 -414 -273
-611 l-23 -79 -6 144 c-15 321 -72 489 -244 719 -47 63 -112 155 -145 204
l-61 90 6 -130 c12 -246 51 -392 182 -682 130 -286 175 -446 175 -621 l0 -87
41 70 c50 85 80 123 238 295 237 258 315 389 368 623 23 103 23 359 -1 502
-20 122 -35 165 -36 100z"/>
<path d="M4410 3740 l0 -160 43 -21 c97 -49 137 -97 137 -164 0 -46 -20 -84
-65 -123 -51 -45 -89 -62 -280 -127 -348 -117 -465 -213 -465 -383 0 -108 47
-188 155 -264 l70 -49 5 161 c5 158 6 162 30 182 41 34 137 74 347 144 243 81
329 122 404 192 75 69 109 137 116 234 10 137 -27 239 -122 334 -67 67 -146
115 -279 168 -49 20 -90 36 -92 36 -2 0 -4 -72 -4 -160z"/>
<path d="M1027 3504 c-9 -50 -35 -147 -56 -215 -87 -272 -107 -393 -98 -594 4
-77 16 -185 27 -240 27 -135 26 -140 -16 -65 -113 203 -206 319 -574 712 -146
156 -209 240 -266 353 l-46 90 7 -85 c32 -412 161 -700 428 -957 99 -95 210
-178 432 -326 88 -58 186 -129 219 -158 38 -34 57 -46 53 -33 -56 189 -64 468
-21 789 11 80 18 196 18 300 0 180 -16 285 -67 447 l-23 73 -17 -91z"/>
<path d="M7326 3493 c-15 -49 -34 -128 -43 -174 -23 -121 -21 -364 5 -574 39
-321 37 -481 -8 -688 -11 -50 -20 -92 -20 -92 0 -1 23 21 52 48 28 26 133 103
232 169 251 168 359 253 469 367 224 234 341 494 377 841 15 149 14 154 -23
80 -70 -139 -125 -208 -357 -455 -267 -284 -360 -401 -475 -597 -30 -50 -55
-88 -55 -82 0 5 10 56 22 114 17 85 21 142 22 295 1 218 -6 260 -83 511 -27
88 -55 189 -61 224 -21 111 -23 111 -54 13z"/>
<path d="M4400 3385 c0 -48 4 -75 11 -75 16 0 79 66 79 83 0 18 -55 67 -76 67
-11 0 -14 -17 -14 -75z"/>
<path d="M4235 2781 c-28 -10 -68 -26 -89 -35 l-39 -16 7 -208 c3 -114 8 -407
12 -652 7 -555 17 -637 77 -628 17 2 26 16 39 54 15 45 19 147 32 775 8 398
14 724 13 725 -1 2 -25 -6 -52 -15z"/>
<path d="M1265 2675 c3 -33 1 -160 -6 -282 -18 -335 9 -507 106 -691 l45 -84
-58 50 c-89 76 -194 143 -424 269 -293 159 -422 246 -539 362 -53 53 -114 122
-135 155 -21 32 -40 54 -41 49 -6 -17 78 -246 127 -349 127 -264 314 -465 539
-579 108 -54 238 -97 482 -160 170 -44 276 -76 334 -104 85 -40 85 -40 67 -13
-32 44 -88 163 -110 232 -28 87 -36 125 -67 325 -30 195 -53 296 -90 410 -32
96 -148 338 -200 415 l-36 55 6 -60z"/>
<path d="M7083 2643 c-152 -260 -214 -445 -268 -798 -40 -261 -77 -384 -153
-512 -17 -29 -30 -53 -28 -53 2 0 37 16 79 35 45 21 176 61 324 99 285 74 363
100 488 164 235 121 400 299 535 577 47 96 140 345 140 373 0 4 -19 -22 -42
-58 -23 -36 -87 -110 -142 -166 -123 -122 -247 -206 -546 -369 -238 -130 -301
-170 -407 -257 l-72 -59 44 83 c98 185 121 318 108 628 -4 118 -7 257 -5 308
2 50 1 92 0 92 -2 0 -27 -39 -55 -87z"/>
<path d="M4380 2372 l0 -90 48 -28 c128 -75 215 -163 266 -274 l26 -55 0 60
c0 168 -85 317 -239 419 -106 71 -101 73 -101 -32z"/>
<path d="M1756 1896 c12 -34 34 -125 49 -202 14 -76 38 -173 51 -214 51 -152
147 -305 283 -453 l63 -67 -74 35 c-129 62 -305 112 -614 175 -165 33 -344 74
-399 91 -124 39 -251 103 -334 170 -35 28 -61 47 -58 42 144 -244 283 -400
460 -514 148 -96 310 -154 514 -184 85 -13 178 -16 443 -14 211 1 347 -2 366
-9 l32 -10 -44 71 c-24 39 -65 126 -91 192 -121 314 -154 379 -281 548 -73 96
-337 378 -373 397 -14 8 -13 0 7 -54z"/>
<path d="M6505 1808 c-254 -258 -359 -417 -475 -722 -64 -167 -97 -238 -141
-303 l-29 -42 32 11 c22 7 150 10 368 9 434 -3 578 17 788 107 237 102 462
312 608 567 l28 50 -43 -38 c-145 -130 -295 -185 -747 -276 -316 -64 -474
-108 -611 -172 l-84 -38 75 81 c129 138 226 297 274 448 12 36 35 134 52 218
17 84 39 175 50 202 11 28 16 50 12 50 -4 0 -74 -69 -157 -152z"/>
<path d="M3170 785 c-180 -23 -372 -60 -584 -115 -383 -98 -521 -122 -716
-121 -133 0 -241 16 -329 50 -30 11 -57 19 -59 16 -2 -2 25 -25 60 -50 257
-190 512 -267 878 -267 297 -1 440 25 865 152 143 43 303 87 355 98 110 24
319 47 328 36 4 -4 2 -9 -5 -11 -37 -13 -248 -148 -340 -217 -115 -86 -353
-310 -341 -321 5 -6 192 -36 194 -31 13 36 112 165 182 238 140 145 303 248
475 299 l69 20 71 -21 c240 -73 459 -241 612 -471 l45 -66 96 13 c54 8 99 15
101 17 7 8 -246 246 -322 304 -101 76 -243 169 -317 208 -91 47 -84 50 75 35
134 -13 294 -51 542 -127 413 -127 576 -156 875 -155 345 0 584 66 826 229 45
29 90 63 99 73 18 19 17 19 -41 -1 -102 -35 -202 -50 -339 -50 -193 0 -338 25
-710 121 -386 100 -646 134 -960 127 -233 -5 -337 -21 -542 -83 l-114 -34 -94
30 c-52 16 -150 42 -217 56 -109 23 -150 27 -363 30 -167 2 -275 -1 -355 -11z"/>
</g>
</svg>
